<mxfile host="app.diagrams.net" agent="Mozilla/5.0 (Windows NT 10.0; Win64; x64) AppleWebKit/537.36 (KHTML, like Gecko) Chrome/128.0.0.0 Safari/537.36" version="24.7.7">
  <diagram id="R2lEEEUBdFMjLlhIrx00" name="Page-1">
    <mxGraphModel dx="1332" dy="468" grid="1" gridSize="10" guides="1" tooltips="1" connect="1" arrows="1" fold="1" page="1" pageScale="1" pageWidth="850" pageHeight="1100" math="0" shadow="0" extFonts="Permanent Marker^https://fonts.googleapis.com/css?family=Permanent+Marker">
      <root>
        <mxCell id="0" />
        <mxCell id="1" parent="0" />
        <mxCell id="RTy7JzslXVjj-GerB6c_-1" value="user" style="rounded=1;whiteSpace=wrap;html=1;" vertex="1" parent="1">
          <mxGeometry x="120" y="210" width="120" height="60" as="geometry" />
        </mxCell>
        <mxCell id="RTy7JzslXVjj-GerB6c_-2" value="plan" style="rounded=1;whiteSpace=wrap;html=1;" vertex="1" parent="1">
          <mxGeometry x="550" y="210" width="120" height="60" as="geometry" />
        </mxCell>
        <mxCell id="RTy7JzslXVjj-GerB6c_-3" value="food" style="rounded=1;whiteSpace=wrap;html=1;" vertex="1" parent="1">
          <mxGeometry x="550" y="490" width="120" height="60" as="geometry" />
        </mxCell>
        <mxCell id="RTy7JzslXVjj-GerB6c_-4" value="has" style="rhombus;whiteSpace=wrap;html=1;" vertex="1" parent="1">
          <mxGeometry x="360" y="200" width="80" height="80" as="geometry" />
        </mxCell>
        <mxCell id="RTy7JzslXVjj-GerB6c_-5" value="consists" style="rhombus;whiteSpace=wrap;html=1;" vertex="1" parent="1">
          <mxGeometry x="570" y="340" width="80" height="80" as="geometry" />
        </mxCell>
        <mxCell id="RTy7JzslXVjj-GerB6c_-6" value="" style="endArrow=classic;startArrow=classic;html=1;rounded=0;exitX=1;exitY=0.5;exitDx=0;exitDy=0;entryX=0;entryY=0.5;entryDx=0;entryDy=0;" edge="1" parent="1" source="RTy7JzslXVjj-GerB6c_-1" target="RTy7JzslXVjj-GerB6c_-4">
          <mxGeometry width="50" height="50" relative="1" as="geometry">
            <mxPoint x="430" y="400" as="sourcePoint" />
            <mxPoint x="480" y="350" as="targetPoint" />
          </mxGeometry>
        </mxCell>
        <mxCell id="RTy7JzslXVjj-GerB6c_-7" value="" style="endArrow=classic;startArrow=classic;html=1;rounded=0;exitX=1;exitY=0.5;exitDx=0;exitDy=0;entryX=0;entryY=0.5;entryDx=0;entryDy=0;" edge="1" parent="1" target="RTy7JzslXVjj-GerB6c_-2">
          <mxGeometry width="50" height="50" relative="1" as="geometry">
            <mxPoint x="440" y="239.5" as="sourcePoint" />
            <mxPoint x="510" y="240" as="targetPoint" />
          </mxGeometry>
        </mxCell>
        <mxCell id="RTy7JzslXVjj-GerB6c_-9" value="" style="endArrow=classic;startArrow=classic;html=1;rounded=0;entryX=0.5;entryY=1;entryDx=0;entryDy=0;exitX=0.5;exitY=0;exitDx=0;exitDy=0;" edge="1" parent="1" source="RTy7JzslXVjj-GerB6c_-5" target="RTy7JzslXVjj-GerB6c_-2">
          <mxGeometry width="50" height="50" relative="1" as="geometry">
            <mxPoint x="430" y="400" as="sourcePoint" />
            <mxPoint x="480" y="350" as="targetPoint" />
          </mxGeometry>
        </mxCell>
        <mxCell id="RTy7JzslXVjj-GerB6c_-10" value="" style="endArrow=classic;startArrow=classic;html=1;rounded=0;entryX=0.5;entryY=1;entryDx=0;entryDy=0;exitX=0.5;exitY=0;exitDx=0;exitDy=0;" edge="1" parent="1" source="RTy7JzslXVjj-GerB6c_-3" target="RTy7JzslXVjj-GerB6c_-5">
          <mxGeometry width="50" height="50" relative="1" as="geometry">
            <mxPoint x="430" y="400" as="sourcePoint" />
            <mxPoint x="480" y="350" as="targetPoint" />
          </mxGeometry>
        </mxCell>
        <mxCell id="RTy7JzslXVjj-GerB6c_-11" value="password" style="ellipse;whiteSpace=wrap;html=1;" vertex="1" parent="1">
          <mxGeometry x="80" y="150" width="70" height="40" as="geometry" />
        </mxCell>
        <mxCell id="RTy7JzslXVjj-GerB6c_-25" style="edgeStyle=orthogonalEdgeStyle;rounded=0;orthogonalLoop=1;jettySize=auto;html=1;exitX=1;exitY=0.5;exitDx=0;exitDy=0;entryX=0;entryY=0.5;entryDx=0;entryDy=0;" edge="1" parent="1" source="RTy7JzslXVjj-GerB6c_-12" target="RTy7JzslXVjj-GerB6c_-1">
          <mxGeometry relative="1" as="geometry" />
        </mxCell>
        <mxCell id="RTy7JzslXVjj-GerB6c_-12" value="email" style="ellipse;whiteSpace=wrap;html=1;" vertex="1" parent="1">
          <mxGeometry x="30" y="220" width="70" height="40" as="geometry" />
        </mxCell>
        <mxCell id="RTy7JzslXVjj-GerB6c_-13" value="&lt;u&gt;userName&lt;/u&gt;" style="ellipse;whiteSpace=wrap;html=1;" vertex="1" parent="1">
          <mxGeometry x="170" y="140" width="70" height="40" as="geometry" />
        </mxCell>
        <mxCell id="RTy7JzslXVjj-GerB6c_-26" style="edgeStyle=orthogonalEdgeStyle;rounded=0;orthogonalLoop=1;jettySize=auto;html=1;exitX=1;exitY=0;exitDx=0;exitDy=0;entryX=0;entryY=1;entryDx=0;entryDy=0;" edge="1" parent="1" source="RTy7JzslXVjj-GerB6c_-14" target="RTy7JzslXVjj-GerB6c_-1">
          <mxGeometry relative="1" as="geometry" />
        </mxCell>
        <mxCell id="RTy7JzslXVjj-GerB6c_-14" value="gender" style="ellipse;whiteSpace=wrap;html=1;" vertex="1" parent="1">
          <mxGeometry x="50" y="290" width="70" height="40" as="geometry" />
        </mxCell>
        <mxCell id="RTy7JzslXVjj-GerB6c_-27" style="edgeStyle=orthogonalEdgeStyle;rounded=0;orthogonalLoop=1;jettySize=auto;html=1;exitX=0.5;exitY=0;exitDx=0;exitDy=0;entryX=0.5;entryY=1;entryDx=0;entryDy=0;" edge="1" parent="1" source="RTy7JzslXVjj-GerB6c_-15" target="RTy7JzslXVjj-GerB6c_-1">
          <mxGeometry relative="1" as="geometry" />
        </mxCell>
        <mxCell id="RTy7JzslXVjj-GerB6c_-15" value="age" style="ellipse;whiteSpace=wrap;html=1;" vertex="1" parent="1">
          <mxGeometry x="150" y="300" width="70" height="40" as="geometry" />
        </mxCell>
        <mxCell id="RTy7JzslXVjj-GerB6c_-16" value="&lt;u&gt;ID&lt;/u&gt;" style="ellipse;whiteSpace=wrap;html=1;" vertex="1" parent="1">
          <mxGeometry x="530" y="150" width="70" height="40" as="geometry" />
        </mxCell>
        <mxCell id="RTy7JzslXVjj-GerB6c_-39" style="edgeStyle=orthogonalEdgeStyle;rounded=0;orthogonalLoop=1;jettySize=auto;html=1;exitX=0;exitY=0.5;exitDx=0;exitDy=0;entryX=1;entryY=0.25;entryDx=0;entryDy=0;" edge="1" parent="1" source="RTy7JzslXVjj-GerB6c_-17" target="RTy7JzslXVjj-GerB6c_-3">
          <mxGeometry relative="1" as="geometry" />
        </mxCell>
        <mxCell id="RTy7JzslXVjj-GerB6c_-17" value="&lt;u&gt;name&lt;/u&gt;" style="ellipse;whiteSpace=wrap;html=1;" vertex="1" parent="1">
          <mxGeometry x="700" y="490" width="70" height="40" as="geometry" />
        </mxCell>
        <mxCell id="RTy7JzslXVjj-GerB6c_-18" value="calories" style="ellipse;whiteSpace=wrap;html=1;" vertex="1" parent="1">
          <mxGeometry x="560" y="570" width="70" height="40" as="geometry" />
        </mxCell>
        <mxCell id="RTy7JzslXVjj-GerB6c_-19" value="height" style="ellipse;whiteSpace=wrap;html=1;" vertex="1" parent="1">
          <mxGeometry x="250" y="280" width="70" height="40" as="geometry" />
        </mxCell>
        <mxCell id="RTy7JzslXVjj-GerB6c_-24" style="edgeStyle=orthogonalEdgeStyle;rounded=0;orthogonalLoop=1;jettySize=auto;html=1;exitX=0;exitY=1;exitDx=0;exitDy=0;entryX=1;entryY=0;entryDx=0;entryDy=0;" edge="1" parent="1" source="RTy7JzslXVjj-GerB6c_-20" target="RTy7JzslXVjj-GerB6c_-1">
          <mxGeometry relative="1" as="geometry" />
        </mxCell>
        <mxCell id="RTy7JzslXVjj-GerB6c_-20" value="weight" style="ellipse;whiteSpace=wrap;html=1;" vertex="1" parent="1">
          <mxGeometry x="260" y="170" width="70" height="40" as="geometry" />
        </mxCell>
        <mxCell id="RTy7JzslXVjj-GerB6c_-22" style="edgeStyle=orthogonalEdgeStyle;rounded=0;orthogonalLoop=1;jettySize=auto;html=1;exitX=0.5;exitY=1;exitDx=0;exitDy=0;entryX=0.7;entryY=0.033;entryDx=0;entryDy=0;entryPerimeter=0;" edge="1" parent="1" source="RTy7JzslXVjj-GerB6c_-13" target="RTy7JzslXVjj-GerB6c_-1">
          <mxGeometry relative="1" as="geometry" />
        </mxCell>
        <mxCell id="RTy7JzslXVjj-GerB6c_-23" style="edgeStyle=orthogonalEdgeStyle;rounded=0;orthogonalLoop=1;jettySize=auto;html=1;exitX=1;exitY=1;exitDx=0;exitDy=0;entryX=0.167;entryY=0.067;entryDx=0;entryDy=0;entryPerimeter=0;" edge="1" parent="1" source="RTy7JzslXVjj-GerB6c_-11" target="RTy7JzslXVjj-GerB6c_-1">
          <mxGeometry relative="1" as="geometry" />
        </mxCell>
        <mxCell id="RTy7JzslXVjj-GerB6c_-28" style="edgeStyle=orthogonalEdgeStyle;rounded=0;orthogonalLoop=1;jettySize=auto;html=1;exitX=0;exitY=0;exitDx=0;exitDy=0;entryX=0.883;entryY=1.05;entryDx=0;entryDy=0;entryPerimeter=0;" edge="1" parent="1" source="RTy7JzslXVjj-GerB6c_-19" target="RTy7JzslXVjj-GerB6c_-1">
          <mxGeometry relative="1" as="geometry" />
        </mxCell>
        <mxCell id="RTy7JzslXVjj-GerB6c_-29" value="totalCalories" style="ellipse;whiteSpace=wrap;html=1;" vertex="1" parent="1">
          <mxGeometry x="640" y="150" width="70" height="40" as="geometry" />
        </mxCell>
        <mxCell id="RTy7JzslXVjj-GerB6c_-33" style="edgeStyle=orthogonalEdgeStyle;rounded=0;orthogonalLoop=1;jettySize=auto;html=1;exitX=0;exitY=0.5;exitDx=0;exitDy=0;entryX=1;entryY=0.5;entryDx=0;entryDy=0;" edge="1" parent="1" source="RTy7JzslXVjj-GerB6c_-30" target="RTy7JzslXVjj-GerB6c_-2">
          <mxGeometry relative="1" as="geometry" />
        </mxCell>
        <mxCell id="RTy7JzslXVjj-GerB6c_-30" value="List of total nutrients" style="ellipse;whiteSpace=wrap;html=1;" vertex="1" parent="1">
          <mxGeometry x="700" y="220" width="70" height="40" as="geometry" />
        </mxCell>
        <mxCell id="RTy7JzslXVjj-GerB6c_-31" style="edgeStyle=orthogonalEdgeStyle;rounded=0;orthogonalLoop=1;jettySize=auto;html=1;exitX=0.5;exitY=1;exitDx=0;exitDy=0;entryX=0.15;entryY=-0.017;entryDx=0;entryDy=0;entryPerimeter=0;" edge="1" parent="1" source="RTy7JzslXVjj-GerB6c_-16" target="RTy7JzslXVjj-GerB6c_-2">
          <mxGeometry relative="1" as="geometry" />
        </mxCell>
        <mxCell id="RTy7JzslXVjj-GerB6c_-32" style="edgeStyle=orthogonalEdgeStyle;rounded=0;orthogonalLoop=1;jettySize=auto;html=1;exitX=0;exitY=1;exitDx=0;exitDy=0;entryX=0.675;entryY=-0.017;entryDx=0;entryDy=0;entryPerimeter=0;" edge="1" parent="1" source="RTy7JzslXVjj-GerB6c_-29" target="RTy7JzslXVjj-GerB6c_-2">
          <mxGeometry relative="1" as="geometry" />
        </mxCell>
        <mxCell id="RTy7JzslXVjj-GerB6c_-34" value="List of nutrients" style="ellipse;whiteSpace=wrap;html=1;" vertex="1" parent="1">
          <mxGeometry x="670" y="570" width="70" height="40" as="geometry" />
        </mxCell>
        <mxCell id="RTy7JzslXVjj-GerB6c_-38" style="edgeStyle=orthogonalEdgeStyle;rounded=0;orthogonalLoop=1;jettySize=auto;html=1;exitX=0;exitY=0;exitDx=0;exitDy=0;entryX=1;entryY=1;entryDx=0;entryDy=0;" edge="1" parent="1" source="RTy7JzslXVjj-GerB6c_-37" target="RTy7JzslXVjj-GerB6c_-2">
          <mxGeometry relative="1" as="geometry" />
        </mxCell>
        <mxCell id="RTy7JzslXVjj-GerB6c_-37" value="total weight" style="ellipse;whiteSpace=wrap;html=1;" vertex="1" parent="1">
          <mxGeometry x="690" y="290" width="70" height="40" as="geometry" />
        </mxCell>
        <mxCell id="RTy7JzslXVjj-GerB6c_-40" style="edgeStyle=orthogonalEdgeStyle;rounded=0;orthogonalLoop=1;jettySize=auto;html=1;exitX=0;exitY=0;exitDx=0;exitDy=0;entryX=0.95;entryY=0.95;entryDx=0;entryDy=0;entryPerimeter=0;" edge="1" parent="1" source="RTy7JzslXVjj-GerB6c_-34" target="RTy7JzslXVjj-GerB6c_-3">
          <mxGeometry relative="1" as="geometry" />
        </mxCell>
        <mxCell id="RTy7JzslXVjj-GerB6c_-41" style="edgeStyle=orthogonalEdgeStyle;rounded=0;orthogonalLoop=1;jettySize=auto;html=1;exitX=0.5;exitY=0;exitDx=0;exitDy=0;entryX=0.392;entryY=1.017;entryDx=0;entryDy=0;entryPerimeter=0;" edge="1" parent="1" source="RTy7JzslXVjj-GerB6c_-18" target="RTy7JzslXVjj-GerB6c_-3">
          <mxGeometry relative="1" as="geometry" />
        </mxCell>
      </root>
    </mxGraphModel>
  </diagram>
</mxfile>
